<svg width="300" height="300" viewBox="0 0 300 300" fill="none" xmlns="http://www.w3.org/2000/svg">
<path opacity="0.1" d="M224.914 262.4C224.914 241.698 241.697 224.915 262.399 224.915C283.102 224.915 299.886 241.698 299.886 262.4C299.886 283.103 283.102 299.887 262.399 299.887C241.697 299.887 224.914 283.103 224.914 262.4ZM256 149.943C280.237 149.944 299.886 169.592 299.886 193.829L299.886 224.915L268.8 224.915C244.562 224.915 224.914 205.267 224.914 181.029L224.914 224.915L181.028 224.915C205.266 224.915 224.914 244.563 224.914 268.801L224.914 299.887L193.828 299.887C169.591 299.887 149.943 280.238 149.942 256.001L149.942 149.943L256 149.943ZM224.914 37.4863C224.914 16.7836 241.697 0.00103359 262.399 0.000971647C283.102 0.000970742 299.886 16.7836 299.886 37.4863C299.886 58.1891 283.102 74.9717 262.399 74.9717C241.697 74.9716 224.914 58.1891 224.914 37.4863ZM262.399 74.9717C283.102 74.9717 299.885 91.7552 299.885 112.458C299.885 133.161 283.102 149.943 262.399 149.943L262.399 74.9717ZM224.914 74.9717C245.617 74.9718 262.399 91.7553 262.399 112.458C262.399 133.161 245.617 149.943 224.914 149.943L224.914 74.9717ZM149.942 112.458C149.942 91.7554 166.725 74.9719 187.428 74.9717C208.13 74.9717 224.914 91.7553 224.914 112.458C224.914 133.161 208.13 149.943 187.428 149.943C166.725 149.943 149.942 133.161 149.942 112.458ZM149.942 37.4863C149.942 16.7837 166.725 0.00118945 187.428 0.000974924C208.13 0.000974019 224.914 16.7836 224.914 37.4863C224.914 58.1891 208.131 74.9717 187.428 74.9717C166.725 74.9715 149.942 58.189 149.942 37.4863ZM169.5 112.457C169.5 122.358 177.527 130.385 187.428 130.385C197.329 130.385 205.355 122.358 205.355 112.457C205.355 102.556 197.329 94.5285 187.428 94.5283C177.526 94.5283 169.5 102.556 169.5 112.457Z" fill="#727271"/>
<path opacity="0.1" d="M-1.63854e-06 37.4893C6.03016e-05 16.7865 16.7826 0.00390043 37.4854 0.00390133C58.1881 0.00395378 74.9706 16.7866 74.9707 37.4893L-1.63854e-06 37.4893ZM74.9707 112.461C74.9706 133.164 58.188 149.946 37.4853 149.946C16.7826 149.946 7.04733e-05 133.164 -4.91565e-06 112.461C-4.07188e-06 93.1577 14.5904 77.265 33.3447 75.2041L-3.2871e-06 75.2041C-2.38216e-06 54.5013 16.7826 37.7178 37.4853 37.7178C58.1881 37.7178 74.9707 54.5013 74.9707 75.2041L41.6269 75.2041C60.3807 77.2655 74.9707 93.1581 74.9707 112.461ZM106.057 74.9746C130.294 74.9746 149.942 94.6231 149.942 118.86L149.942 224.918L43.8857 224.918C19.6483 224.918 -8.97245e-06 205.27 -7.913e-06 181.032L-6.55419e-06 149.946L31.085 149.946C55.3223 149.946 74.9706 169.595 74.9707 193.832L74.9707 149.946L118.856 149.946C94.6191 149.946 74.9707 130.298 74.9707 106.061L74.9707 74.9746L96.9141 74.9746C84.7954 74.9746 74.9707 65.1509 74.9707 53.0322L74.9707 0.00390297L128 0.00390529C140.118 0.00415547 149.942 9.82784 149.942 21.9463L149.942 74.9746L106.057 74.9746ZM37.4853 299.89C16.7825 299.89 -1.23748e-05 283.106 -1.14698e-05 262.403C0.000172541 241.701 16.7827 224.918 37.4853 224.918L37.4853 299.89ZM74.9707 299.89C54.268 299.889 37.4853 283.106 37.4853 262.403C37.4855 241.701 54.2681 224.918 74.9707 224.918L74.9707 299.89ZM149.942 262.404C149.942 283.107 133.16 299.89 112.457 299.891C91.7543 299.891 74.9707 283.107 74.9707 262.404C74.9709 241.702 91.7544 224.919 112.457 224.919C133.16 224.919 149.942 241.702 149.942 262.404ZM130.385 262.404C130.385 252.503 122.358 244.476 112.457 244.476C102.556 244.476 94.5293 252.503 94.5293 262.404C94.5295 272.305 102.556 280.332 112.457 280.332C122.358 280.332 130.385 272.305 130.385 262.404Z" fill="#727271"/>
</svg>
