<svg width="533" height="62" viewBox="0 0 533 62" fill="none" xmlns="http://www.w3.org/2000/svg">
<path d="M66.5215 38C66.5215 51.2547 55.7761 61.9998 42.5215 62H0V24C0 10.7452 10.7452 0 24 0H66.5215V38ZM133.042 22C133.042 44.0914 115.133 62 93.042 62H66.5205V40C66.5205 17.9088 84.4293 0.000228066 106.521 0H133.042V22ZM199.563 62H133.043V0H199.563V62ZM299.346 62C280.989 61.9998 266.105 48.1392 266.085 31.0342C266.065 48.1393 251.182 62 232.825 62C214.456 62 199.564 48.1208 199.564 31C199.564 13.8792 214.456 1.49823e-05 232.825 0C251.182 0 266.065 13.8602 266.085 30.9648C266.105 13.8603 280.989 0.000188188 299.346 0V62ZM332.606 62C314.237 61.9998 299.346 48.1207 299.346 31C299.346 13.8793 314.237 0.000203689 332.606 0V62ZM365.867 0C384.237 2.6901e-05 399.128 13.8792 399.128 31C399.128 48.1208 384.237 62 365.867 62C347.498 62 332.606 48.1208 332.606 31C332.606 13.8792 347.498 0 365.867 0ZM465.649 22C465.649 44.0914 447.741 62 425.649 62H399.128V40C399.128 17.9088 417.037 0.000248682 439.128 0H465.649V22ZM532.171 31C532.171 48.1208 517.279 62 498.91 62C480.541 62 465.649 48.1208 465.649 31H532.171ZM232.822 16.1738C224.037 16.174 216.915 22.8119 216.915 31C216.915 39.1881 224.037 45.826 232.822 45.8262C241.608 45.8262 248.729 39.1882 248.729 31C248.729 22.8118 241.608 16.1738 232.822 16.1738ZM532.171 0C532.171 17.1208 517.279 31 498.91 31C480.541 31 465.649 17.1208 465.649 0H532.171Z" fill="white"/>
</svg>
