<svg width="168" height="38" viewBox="0 0 168 38" fill="none" xmlns="http://www.w3.org/2000/svg">
<path d="M58.4363 0.482206L66.0404 0.25V29.4196C66.0404 33.5722 62.674 36.9386 58.5214 36.9386H58.4363V18.5943V6.10159L56.4537 6.60504C50.8086 8.03842 46.4165 12.4717 45.0358 18.1299L43.8474 13.9147C43.6053 13.0561 43.1384 12.2776 42.4949 11.6596L40.6729 9.90977L41.0764 9.40198C44.4364 5.17375 49.1948 2.28315 54.4958 1.25013L58.4363 0.482206Z" fill="white"/>
<g filter="url(#filter0_d_2796_1528)">
<path d="M0 0.25C4.15259 0.25 7.57731 3.61634 7.57731 7.76893V31.2263H27.7417C42.1541 29.1382 42.0775 8.38476 27.7417 5.82295H21.5421V26.0249H21.4211C17.2685 26.0249 13.9022 22.6585 13.9022 18.5059V0.25H28.0548L30.8361 0.534496C39.6873 1.43989 46.5581 8.66081 47.0228 17.546C48.2588 27.8612 40.2041 36.9386 29.8152 36.9386H0V0.25Z" fill="white"/>
</g>
<path d="M76.8986 16.25V4.92369H82.044C83.2737 4.92369 84.3578 5.161 85.2963 5.63563C86.2348 6.09947 86.9683 6.75208 87.4968 7.59346C88.0254 8.43484 88.2897 9.43264 88.2897 10.5868C88.2897 11.7303 88.0254 12.7281 87.4968 13.5802C86.9683 14.4216 86.2348 15.0796 85.2963 15.5542C84.3578 16.0181 83.2737 16.25 82.044 16.25H76.8986ZM79.5199 14.098H81.9146C82.6697 14.098 83.3223 13.9578 83.8724 13.6773C84.4333 13.3861 84.8648 12.9762 85.1668 12.4476C85.4797 11.919 85.6361 11.2988 85.6361 10.5868C85.6361 9.86412 85.4797 9.24387 85.1668 8.72609C84.8648 8.19753 84.4333 7.79302 83.8724 7.51256C83.3223 7.22131 82.6697 7.07569 81.9146 7.07569H79.5199V14.098ZM94.4087 16.3794C93.4163 16.3794 92.5425 16.1853 91.7874 15.7969C91.0431 15.4086 90.466 14.8801 90.0561 14.2113C89.6462 13.5317 89.4413 12.7604 89.4413 11.8975C89.4413 11.0237 89.6408 10.2524 90.0399 9.58366C90.4498 8.90408 91.0054 8.37552 91.7065 7.99797C92.4077 7.60964 93.2005 7.41548 94.0851 7.41548C94.9372 7.41548 95.7031 7.59886 96.3827 7.96561C97.073 8.32158 97.6178 8.83936 98.0169 9.51893C98.416 10.1877 98.6156 10.9914 98.6156 11.9298C98.6156 12.0269 98.6102 12.1402 98.5994 12.2696C98.5886 12.3883 98.5778 12.5015 98.567 12.6094H91.4962V11.137H97.2402L96.2694 11.5739C96.2694 11.1208 96.1777 10.7271 95.9943 10.3927C95.811 10.0583 95.5575 9.7994 95.2339 9.61602C94.9103 9.42185 94.5327 9.32477 94.1012 9.32477C93.6698 9.32477 93.2868 9.42185 92.9524 9.61602C92.6288 9.7994 92.3753 10.0637 92.1919 10.4089C92.0086 10.7433 91.9169 11.1424 91.9169 11.6062V11.9945C91.9169 12.4692 92.0194 12.8899 92.2243 13.2566C92.44 13.6126 92.7367 13.8877 93.1142 14.0818C93.5026 14.2652 93.9556 14.3569 94.4734 14.3569C94.9372 14.3569 95.3417 14.2868 95.6869 14.1465C96.0429 14.0063 96.3665 13.796 96.6577 13.5155L98.0007 14.9717C97.6016 15.4248 97.1 15.7754 96.4959 16.0235C95.8919 16.2608 95.1961 16.3794 94.4087 16.3794ZM104.616 16.3794C103.624 16.3794 102.75 16.1853 101.995 15.7969C101.251 15.4086 100.674 14.8801 100.264 14.2113C99.8538 13.5317 99.6489 12.7604 99.6489 11.8975C99.6489 11.0237 99.8484 10.2524 100.248 9.58366C100.657 8.90408 101.213 8.37552 101.914 7.99797C102.615 7.60964 103.408 7.41548 104.293 7.41548C105.145 7.41548 105.911 7.59886 106.59 7.96561C107.281 8.32158 107.825 8.83936 108.224 9.51893C108.624 10.1877 108.823 10.9914 108.823 11.9298C108.823 12.0269 108.818 12.1402 108.807 12.2696C108.796 12.3883 108.785 12.5015 108.775 12.6094H101.704V11.137H107.448L106.477 11.5739C106.477 11.1208 106.385 10.7271 106.202 10.3927C106.019 10.0583 105.765 9.7994 105.441 9.61602C105.118 9.42185 104.74 9.32477 104.309 9.32477C103.877 9.32477 103.494 9.42185 103.16 9.61602C102.836 9.7994 102.583 10.0637 102.4 10.4089C102.216 10.7433 102.124 11.1424 102.124 11.6062V11.9945C102.124 12.4692 102.227 12.8899 102.432 13.2566C102.648 13.6126 102.944 13.8877 103.322 14.0818C103.71 14.2652 104.163 14.3569 104.681 14.3569C105.145 14.3569 105.549 14.2868 105.895 14.1465C106.25 14.0063 106.574 13.796 106.865 13.5155L108.208 14.9717C107.809 15.4248 107.308 15.7754 106.704 16.0235C106.099 16.2608 105.404 16.3794 104.616 16.3794ZM115.649 16.3794C114.916 16.3794 114.274 16.2176 113.724 15.894C113.173 15.5704 112.742 15.0796 112.429 14.4216C112.127 13.7528 111.976 12.9114 111.976 11.8975C111.976 10.8727 112.122 10.0313 112.413 9.37331C112.704 8.71531 113.125 8.2245 113.675 7.90089C114.225 7.57728 114.883 7.41548 115.649 7.41548C116.469 7.41548 117.202 7.60425 117.85 7.98179C118.508 8.34855 119.025 8.86632 119.403 9.53512C119.791 10.2039 119.985 10.9914 119.985 11.8975C119.985 12.8144 119.791 13.6072 119.403 14.276C119.025 14.9448 118.508 15.4626 117.85 15.8293C117.202 16.1961 116.469 16.3794 115.649 16.3794ZM110.504 19.389V7.54492H112.915V9.32477L112.866 11.9136L113.028 14.4863V19.389H110.504ZM115.212 14.3083C115.633 14.3083 116.005 14.2113 116.329 14.0171C116.663 13.8229 116.927 13.5479 117.121 13.1919C117.326 12.8251 117.429 12.3937 117.429 11.8975C117.429 11.3905 117.326 10.959 117.121 10.603C116.927 10.2471 116.663 9.97199 116.329 9.77782C116.005 9.58366 115.633 9.48657 115.212 9.48657C114.791 9.48657 114.414 9.58366 114.08 9.77782C113.745 9.97199 113.481 10.2471 113.287 10.603C113.093 10.959 112.995 11.3905 112.995 11.8975C112.995 12.3937 113.093 12.8251 113.287 13.1919C113.481 13.5479 113.745 13.8229 114.08 14.0171C114.414 14.2113 114.791 14.3083 115.212 14.3083ZM132.823 7.41548C133.514 7.41548 134.123 7.55571 134.652 7.83617C135.191 8.10584 135.612 8.52653 135.914 9.09824C136.227 9.65917 136.383 10.3819 136.383 11.2664V16.25H133.859V11.6548C133.859 10.9536 133.713 10.4358 133.422 10.1014C133.131 9.76703 132.721 9.59984 132.192 9.59984C131.826 9.59984 131.497 9.68613 131.205 9.85872C130.914 10.0205 130.688 10.2686 130.526 10.603C130.364 10.9374 130.283 11.3635 130.283 11.8813V16.25H127.759V11.6548C127.759 10.9536 127.613 10.4358 127.322 10.1014C127.042 9.76703 126.637 9.59984 126.109 9.59984C125.742 9.59984 125.413 9.68613 125.122 9.85872C124.83 10.0205 124.604 10.2686 124.442 10.603C124.28 10.9374 124.199 11.3635 124.199 11.8813V16.25H121.675V7.54492H124.086V9.92345L123.633 9.22769C123.935 8.6344 124.361 8.18674 124.911 7.88471C125.472 7.57189 126.109 7.41548 126.82 7.41548C127.619 7.41548 128.314 7.62043 128.908 8.03033C129.512 8.42945 129.911 9.04431 130.105 9.8749L129.215 9.6322C129.506 8.95262 129.97 8.41327 130.607 8.01415C131.254 7.61504 131.993 7.41548 132.823 7.41548ZM143.985 16.25V14.5511L143.823 14.1789V11.137C143.823 10.5976 143.656 10.1769 143.322 9.8749C142.998 9.57287 142.497 9.42185 141.817 9.42185C141.353 9.42185 140.895 9.49736 140.442 9.64838C139.999 9.78861 139.622 9.98277 139.309 10.2309L138.403 8.46721C138.878 8.13281 139.449 7.87392 140.118 7.69054C140.787 7.50717 141.466 7.41548 142.157 7.41548C143.484 7.41548 144.514 7.7283 145.247 8.35394C145.981 8.97959 146.348 9.95581 146.348 11.2826V16.25H143.985ZM141.332 16.3794C140.652 16.3794 140.07 16.2662 139.584 16.0397C139.099 15.8023 138.727 15.4841 138.468 15.085C138.209 14.6859 138.079 14.2382 138.079 13.742C138.079 13.2243 138.203 12.7712 138.451 12.3829C138.71 11.9945 139.115 11.6925 139.665 11.4768C140.215 11.2502 140.932 11.137 141.817 11.137H144.131V12.6094H142.092C141.499 12.6094 141.089 12.7065 140.862 12.9006C140.647 13.0948 140.539 13.3375 140.539 13.6288C140.539 13.9524 140.663 14.2113 140.911 14.4054C141.17 14.5888 141.52 14.6805 141.963 14.6805C142.383 14.6805 142.761 14.5834 143.095 14.3892C143.43 14.1843 143.672 13.8877 143.823 13.4993L144.212 14.6643C144.028 15.2252 143.694 15.6513 143.209 15.9426C142.723 16.2338 142.097 16.3794 141.332 16.3794ZM148.632 16.25V7.54492H151.043V10.0043L150.703 9.29241C150.962 8.67755 151.377 8.21371 151.949 7.90089C152.521 7.57728 153.216 7.41548 154.036 7.41548V9.74546C153.928 9.73467 153.831 9.72928 153.745 9.72928C153.659 9.71849 153.567 9.7131 153.47 9.7131C152.78 9.7131 152.219 9.91266 151.787 10.3118C151.366 10.7001 151.156 11.3096 151.156 12.1402V16.25H148.632ZM157.64 14.4702L157.705 11.3959L161.766 7.54492H164.776L160.876 11.5091L159.566 12.577L157.64 14.4702ZM155.553 16.25V4.24411H158.077V16.25H155.553ZM162.041 16.25L159.096 12.5932L160.682 10.6354L165.099 16.25H162.041ZM76.7308 33.25V23.3395H79.0243V33.25H76.7308ZM85.8502 25.5198C86.4543 25.5198 86.9923 25.6425 87.4642 25.8879C87.9456 26.1239 88.3231 26.492 88.5968 26.9922C88.8706 27.483 89.0074 28.1154 89.0074 28.8894V33.25H86.7988V29.2292C86.7988 28.6157 86.6619 28.1626 86.3882 27.87C86.1239 27.5774 85.7464 27.4311 85.2556 27.4311C84.9064 27.4311 84.5902 27.5066 84.307 27.6576C84.0333 27.7992 83.8162 28.021 83.6557 28.3231C83.5047 28.6251 83.4292 29.0121 83.4292 29.484V33.25H81.2206V25.6331H83.3301V27.7426L82.9337 27.1055C83.2074 26.5958 83.5991 26.2041 84.1088 25.9304C84.6185 25.6567 85.199 25.5198 85.8502 25.5198ZM93.572 33.3633C92.9208 33.3633 92.2931 33.2878 91.689 33.1367C91.0944 32.9763 90.6225 32.7781 90.2732 32.5421L91.0094 30.9564C91.3587 31.1735 91.7692 31.3528 92.2412 31.4944C92.7225 31.6266 93.1945 31.6926 93.657 31.6926C94.1667 31.6926 94.5253 31.6313 94.733 31.5086C94.9501 31.3859 95.0586 31.216 95.0586 30.9989C95.0586 30.8196 94.9737 30.6874 94.8038 30.6025C94.6433 30.5081 94.4262 30.4373 94.1525 30.3901C93.8788 30.3429 93.5767 30.2957 93.2464 30.2485C92.9255 30.2013 92.5998 30.14 92.2695 30.0645C91.9391 29.9795 91.6371 29.8568 91.3634 29.6964C91.0897 29.5359 90.8679 29.3188 90.698 29.0451C90.5375 28.7714 90.4573 28.4174 90.4573 27.9833C90.4573 27.5019 90.5941 27.0772 90.8679 26.7091C91.151 26.3409 91.5569 26.0531 92.0854 25.8454C92.614 25.6283 93.2464 25.5198 93.9826 25.5198C94.5017 25.5198 95.0303 25.5764 95.5683 25.6897C96.1063 25.803 96.5546 25.9681 96.9133 26.1852L96.1771 27.7567C95.809 27.5397 95.4361 27.3934 95.0586 27.3178C94.6905 27.2329 94.3318 27.1904 93.9826 27.1904C93.4918 27.1904 93.1331 27.2565 92.9066 27.3886C92.6801 27.5208 92.5668 27.6907 92.5668 27.8983C92.5668 28.0871 92.647 28.2287 92.8075 28.3231C92.9774 28.4174 93.1992 28.4929 93.4729 28.5496C93.7466 28.6062 94.0439 28.6581 94.3649 28.7053C94.6952 28.7431 95.0256 28.8044 95.3559 28.8894C95.6863 28.9743 95.9836 29.097 96.2479 29.2575C96.5216 29.4085 96.7434 29.6209 96.9133 29.8946C97.0832 30.1589 97.1681 30.5081 97.1681 30.9423C97.1681 31.4142 97.0265 31.8342 96.7434 32.2023C96.4602 32.561 96.0497 32.8441 95.5117 33.0518C94.9831 33.2594 94.3365 33.3633 93.572 33.3633ZM98.5308 33.25V25.6331H100.739V33.25H98.5308ZM99.6351 24.5712C99.2293 24.5712 98.8989 24.4532 98.6441 24.2173C98.3892 23.9813 98.2618 23.6887 98.2618 23.3395C98.2618 22.9902 98.3892 22.6977 98.6441 22.4617C98.8989 22.2257 99.2293 22.1077 99.6351 22.1077C100.041 22.1077 100.371 22.221 100.626 22.4475C100.881 22.6646 101.008 22.9478 101.008 23.297C101.008 23.6651 100.881 23.9719 100.626 24.2173C100.381 24.4532 100.05 24.5712 99.6351 24.5712ZM106.371 36.1099C105.654 36.1099 104.96 36.0202 104.29 35.8409C103.629 35.671 103.077 35.4114 102.634 35.0622L103.511 33.4765C103.832 33.7408 104.238 33.9485 104.729 34.0995C105.229 34.2599 105.72 34.3402 106.201 34.3402C106.985 34.3402 107.551 34.1655 107.9 33.8163C108.259 33.4671 108.438 32.948 108.438 32.2589V31.1122L108.58 29.2008L108.552 27.2754V25.6331H110.647V31.9758C110.647 33.3916 110.279 34.4345 109.543 35.1047C108.806 35.7748 107.749 36.1099 106.371 36.1099ZM106.031 32.8819C105.324 32.8819 104.682 32.7309 104.106 32.4288C103.54 32.1174 103.082 31.6879 102.733 31.1405C102.393 30.5836 102.223 29.9371 102.223 29.2008C102.223 28.4552 102.393 27.8087 102.733 27.2612C103.082 26.7043 103.54 26.2749 104.106 25.9728C104.682 25.6708 105.324 25.5198 106.031 25.5198C106.673 25.5198 107.24 25.6519 107.73 25.9162C108.221 26.1711 108.603 26.5722 108.877 27.1196C109.151 27.6576 109.288 28.3514 109.288 29.2008C109.288 30.0409 109.151 30.7346 108.877 31.2821C108.603 31.8201 108.221 32.2212 107.73 32.4855C107.24 32.7498 106.673 32.8819 106.031 32.8819ZM106.47 31.0697C106.857 31.0697 107.202 30.9942 107.504 30.8432C107.806 30.6827 108.042 30.4609 108.212 30.1777C108.382 29.8946 108.467 29.5689 108.467 29.2008C108.467 28.8233 108.382 28.4977 108.212 28.2239C108.042 27.9408 107.806 27.7237 107.504 27.5727C107.202 27.4122 106.857 27.332 106.47 27.332C106.083 27.332 105.739 27.4122 105.437 27.5727C105.135 27.7237 104.894 27.9408 104.715 28.2239C104.545 28.4977 104.46 28.8233 104.46 29.2008C104.46 29.5689 104.545 29.8946 104.715 30.1777C104.894 30.4609 105.135 30.6827 105.437 30.8432C105.739 30.9942 106.083 31.0697 106.47 31.0697ZM117.332 25.5198C117.936 25.5198 118.474 25.6425 118.946 25.8879C119.428 26.1239 119.805 26.492 120.079 26.9922C120.353 27.483 120.489 28.1154 120.489 28.8894V33.25H118.281V29.2292C118.281 28.6157 118.144 28.1626 117.87 27.87C117.606 27.5774 117.228 27.4311 116.738 27.4311C116.388 27.4311 116.072 27.5066 115.789 27.6576C115.515 27.7992 115.298 28.021 115.138 28.3231C114.987 28.6251 114.911 29.0121 114.911 29.484V33.25H112.703V22.7448H114.911V27.7426L114.416 27.1055C114.689 26.5958 115.081 26.2041 115.591 25.9304C116.1 25.6567 116.681 25.5198 117.332 25.5198ZM125.606 33.3633C124.709 33.3633 124.011 33.1367 123.511 32.6837C123.011 32.2212 122.76 31.5369 122.76 30.6308V23.9483H124.969V30.6025C124.969 30.9234 125.054 31.1735 125.224 31.3528C125.394 31.5227 125.625 31.6077 125.918 31.6077C126.267 31.6077 126.564 31.5133 126.81 31.3245L127.404 32.8819C127.178 33.0424 126.904 33.1651 126.583 33.25C126.272 33.3255 125.946 33.3633 125.606 33.3633ZM121.585 27.5019V25.803H126.866V27.5019H121.585ZM132.809 33.25V23.3395H137.311C138.387 23.3395 139.336 23.5471 140.157 23.9624C140.978 24.3683 141.62 24.9393 142.083 25.6755C142.545 26.4117 142.776 27.2848 142.776 28.2947C142.776 29.2952 142.545 30.1683 142.083 30.9139C141.62 31.6502 140.978 32.2259 140.157 32.6412C139.336 33.0471 138.387 33.25 137.311 33.25H132.809ZM135.103 31.367H137.198C137.859 31.367 138.43 31.2443 138.911 30.9989C139.402 30.7441 139.78 30.3854 140.044 29.9229C140.318 29.4604 140.455 28.9177 140.455 28.2947C140.455 27.6624 140.318 27.1196 140.044 26.6666C139.78 26.2041 139.402 25.8501 138.911 25.6047C138.43 25.3499 137.859 25.2225 137.198 25.2225H135.103V31.367ZM149.022 33.25V31.7634L148.881 31.4378V28.7761C148.881 28.3042 148.735 27.9361 148.442 27.6718C148.159 27.4075 147.72 27.2754 147.125 27.2754C146.719 27.2754 146.318 27.3414 145.922 27.4736C145.535 27.5963 145.205 27.7662 144.931 27.9833L144.138 26.4401C144.553 26.1475 145.054 25.9209 145.639 25.7605C146.224 25.6 146.819 25.5198 147.423 25.5198C148.584 25.5198 149.485 25.7935 150.127 26.3409C150.769 26.8884 151.09 27.7426 151.09 28.9035V33.25H149.022ZM146.701 33.3633C146.106 33.3633 145.596 33.2642 145.172 33.0659C144.747 32.8583 144.421 32.5799 144.195 32.2306C143.968 31.8814 143.855 31.4897 143.855 31.0555C143.855 30.6025 143.963 30.2061 144.18 29.8663C144.407 29.5265 144.761 29.2622 145.242 29.0734C145.724 28.8752 146.351 28.7761 147.125 28.7761H149.15V30.0645H147.366C146.847 30.0645 146.488 30.1494 146.29 30.3193C146.101 30.4892 146.007 30.7016 146.007 30.9564C146.007 31.2396 146.115 31.4661 146.332 31.636C146.559 31.7965 146.866 31.8767 147.253 31.8767C147.621 31.8767 147.951 31.7917 148.244 31.6218C148.536 31.4425 148.749 31.1829 148.881 30.8432L149.221 31.8625C149.06 32.3533 148.768 32.7262 148.343 32.981C147.918 33.2358 147.371 33.3633 146.701 33.3633ZM156.203 33.3633C155.307 33.3633 154.608 33.1367 154.108 32.6837C153.608 32.2212 153.357 31.5369 153.357 30.6308V23.9483H155.566V30.6025C155.566 30.9234 155.651 31.1735 155.821 31.3528C155.991 31.5227 156.222 31.6077 156.515 31.6077C156.864 31.6077 157.161 31.5133 157.407 31.3245L158.001 32.8819C157.775 33.0424 157.501 33.1651 157.18 33.25C156.869 33.3255 156.543 33.3633 156.203 33.3633ZM152.182 27.5019V25.803H157.463V27.5019H152.182ZM163.913 33.25V31.7634L163.772 31.4378V28.7761C163.772 28.3042 163.625 27.9361 163.333 27.6718C163.05 27.4075 162.611 27.2754 162.016 27.2754C161.61 27.2754 161.209 27.3414 160.813 27.4736C160.426 27.5963 160.095 27.7662 159.822 27.9833L159.029 26.4401C159.444 26.1475 159.944 25.9209 160.529 25.7605C161.115 25.6 161.709 25.5198 162.313 25.5198C163.474 25.5198 164.376 25.7935 165.017 26.3409C165.659 26.8884 165.98 27.7426 165.98 28.9035V33.25H163.913ZM161.591 33.3633C160.997 33.3633 160.487 33.2642 160.062 33.0659C159.637 32.8583 159.312 32.5799 159.085 32.2306C158.859 31.8814 158.746 31.4897 158.746 31.0555C158.746 30.6025 158.854 30.2061 159.071 29.8663C159.298 29.5265 159.652 29.2622 160.133 29.0734C160.614 28.8752 161.242 28.7761 162.016 28.7761H164.041V30.0645H162.257C161.738 30.0645 161.379 30.1494 161.181 30.3193C160.992 30.4892 160.898 30.7016 160.898 30.9564C160.898 31.2396 161.006 31.4661 161.223 31.636C161.45 31.7965 161.756 31.8767 162.143 31.8767C162.512 31.8767 162.842 31.7917 163.134 31.6218C163.427 31.4425 163.639 31.1829 163.772 30.8432L164.111 31.8625C163.951 32.3533 163.658 32.7262 163.234 32.981C162.809 33.2358 162.261 33.3633 161.591 33.3633Z" fill="white"/>
<defs>
<filter id="filter0_d_2796_1528" x="0" y="-0.000630885" width="48.7775" height="37.692" filterUnits="userSpaceOnUse" color-interpolation-filters="sRGB">
<feFlood flood-opacity="0" result="BackgroundImageFix"/>
<feColorMatrix in="SourceAlpha" type="matrix" values="0 0 0 0 0 0 0 0 0 0 0 0 0 0 0 0 0 0 127 0" result="hardAlpha"/>
<feOffset dx="1.12784" dy="0.250631"/>
<feGaussianBlur stdDeviation="0.250631"/>
<feComposite in2="hardAlpha" operator="out"/>
<feColorMatrix type="matrix" values="0 0 0 0 0 0 0 0 0 0 0 0 0 0 0 0 0 0 0.25 0"/>
<feBlend mode="normal" in2="BackgroundImageFix" result="effect1_dropShadow_2796_1528"/>
<feBlend mode="normal" in="SourceGraphic" in2="effect1_dropShadow_2796_1528" result="shape"/>
</filter>
</defs>
</svg>
