<svg width="124" height="29" viewBox="0 0 124 29" fill="none" xmlns="http://www.w3.org/2000/svg">
<path d="M42.985 0.3544L48.5784 0.183594V21.6403C48.5784 24.6948 46.1021 27.1711 43.0476 27.1711H42.985V13.6773V4.48792L41.5265 4.85825C37.3742 5.91262 34.1434 9.17369 33.1278 13.3357L32.2536 10.2351C32.0755 9.60351 31.7321 9.03086 31.2587 8.57631L29.9185 7.28915L30.2153 6.91563C32.6868 3.80542 36.187 1.67915 40.0863 0.919269L42.985 0.3544Z" fill="#31456A"/>
<g filter="url(#filter0_d_2677_122)">
<path d="M0 0.183594C3.05457 0.183594 5.57374 2.65981 5.57374 5.71439V22.9692H20.4063C31.0078 21.4333 30.9515 6.16738 20.4063 4.28296H15.846V19.1431H15.757C12.7024 19.1431 10.2262 16.6669 10.2262 13.6123V0.183594H20.6366L22.6825 0.392864C29.1933 1.05886 34.2473 6.37044 34.5891 12.9063C35.4983 20.4939 29.5735 27.1711 21.9316 27.1711H0V0.183594Z" fill="#31456A"/>
</g>
<path d="M56.566 12.1836V3.85216H60.3508C61.2554 3.85216 62.0528 4.02672 62.7432 4.37585C63.4335 4.71704 63.973 5.19709 64.3618 5.81599C64.7506 6.4349 64.945 7.16886 64.945 8.01787C64.945 8.85895 64.7506 9.59291 64.3618 10.2198C63.973 10.8387 63.4335 11.3227 62.7432 11.6718C62.0528 12.013 61.2554 12.1836 60.3508 12.1836H56.566ZM58.4941 10.6006H60.2556C60.8111 10.6006 61.2911 10.4975 61.6958 10.2912C62.1084 10.0769 62.4258 9.77541 62.6479 9.38661C62.8781 8.99781 62.9931 8.54157 62.9931 8.01787C62.9931 7.48625 62.8781 7.03 62.6479 6.64914C62.4258 6.26034 62.1084 5.96279 61.6958 5.75648C61.2911 5.54225 60.8111 5.43513 60.2556 5.43513H58.4941V10.6006ZM69.4461 12.2788C68.7161 12.2788 68.0734 12.136 67.5179 11.8503C66.9704 11.5647 66.5459 11.1759 66.2444 10.6839C65.9429 10.184 65.7921 9.61672 65.7921 8.98194C65.7921 8.33923 65.9389 7.7719 66.2325 7.27995C66.534 6.78006 66.9427 6.39126 67.4584 6.11355C67.9742 5.8279 68.5574 5.68507 69.208 5.68507C69.8349 5.68507 70.3982 5.81996 70.8981 6.08974C71.4059 6.35159 71.8066 6.73245 72.1002 7.23234C72.3938 7.72429 72.5406 8.31543 72.5406 9.00575C72.5406 9.07716 72.5366 9.16047 72.5287 9.25569C72.5208 9.34297 72.5128 9.42628 72.5049 9.50563H67.3037V8.42254H71.5289L70.8148 8.7439C70.8148 8.41064 70.7474 8.12103 70.6125 7.87505C70.4776 7.62907 70.2911 7.43864 70.0531 7.30375C69.815 7.16093 69.5373 7.08951 69.2199 7.08951C68.9025 7.08951 68.6209 7.16093 68.3749 7.30375C68.1368 7.43864 67.9504 7.63304 67.8155 7.88695C67.6806 8.13293 67.6131 8.42651 67.6131 8.7677V9.05335C67.6131 9.40248 67.6885 9.71193 67.8393 9.98171C67.998 10.2436 68.2162 10.4459 68.4939 10.5887C68.7795 10.7236 69.1128 10.7911 69.4937 10.7911C69.8349 10.7911 70.1324 10.7395 70.3863 10.6363C70.6482 10.5332 70.8862 10.3784 71.1004 10.1721L72.0883 11.2433C71.7947 11.5766 71.4258 11.8345 70.9814 12.017C70.5371 12.1915 70.0253 12.2788 69.4461 12.2788ZM76.9546 12.2788C76.2246 12.2788 75.5819 12.136 75.0265 11.8503C74.479 11.5647 74.0545 11.1759 73.7529 10.6839C73.4514 10.184 73.3007 9.61672 73.3007 8.98194C73.3007 8.33923 73.4474 7.7719 73.741 7.27995C74.0425 6.78006 74.4512 6.39126 74.9669 6.11355C75.4827 5.8279 76.0659 5.68507 76.7165 5.68507C77.3434 5.68507 77.9067 5.81996 78.4066 6.08974C78.9145 6.35159 79.3152 6.73245 79.6087 7.23234C79.9023 7.72429 80.0491 8.31543 80.0491 9.00575C80.0491 9.07716 80.0452 9.16047 80.0372 9.25569C80.0293 9.34297 80.0213 9.42628 80.0134 9.50563H74.8122V8.42254H79.0374L78.3233 8.7439C78.3233 8.41064 78.2559 8.12103 78.121 7.87505C77.9861 7.62907 77.7996 7.43864 77.5616 7.30375C77.3235 7.16093 77.0458 7.08951 76.7284 7.08951C76.4111 7.08951 76.1294 7.16093 75.8834 7.30375C75.6454 7.43864 75.4589 7.63304 75.324 7.88695C75.1891 8.13293 75.1217 8.42651 75.1217 8.7677V9.05335C75.1217 9.40248 75.197 9.71193 75.3478 9.98171C75.5065 10.2436 75.7247 10.4459 76.0024 10.5887C76.2881 10.7236 76.6213 10.7911 77.0022 10.7911C77.3434 10.7911 77.6409 10.7395 77.8948 10.6363C78.1567 10.5332 78.3947 10.3784 78.609 10.1721L79.5968 11.2433C79.3033 11.5766 78.9343 11.8345 78.4899 12.017C78.0456 12.1915 77.5338 12.2788 76.9546 12.2788ZM85.0701 12.2788C84.5306 12.2788 84.0584 12.1598 83.6538 11.9217C83.2491 11.6837 82.9317 11.3227 82.7016 10.8387C82.4794 10.3467 82.3683 9.7278 82.3683 8.98194C82.3683 8.22814 82.4755 7.60924 82.6897 7.12522C82.9039 6.6412 83.2134 6.28017 83.6181 6.04213C84.0227 5.80409 84.5067 5.68507 85.0701 5.68507C85.6731 5.68507 86.2127 5.82393 86.6888 6.10164C87.1728 6.37142 87.5537 6.75229 87.8314 7.24424C88.117 7.73619 88.2599 8.31543 88.2599 8.98194C88.2599 9.65639 88.117 10.2396 87.8314 10.7315C87.5537 11.2235 87.1728 11.6044 86.6888 11.8741C86.2127 12.1439 85.6731 12.2788 85.0701 12.2788ZM81.2853 14.4926V5.78029H83.0587V7.08951L83.023 8.99384L83.142 10.8863V14.4926H81.2853ZM84.7488 10.7553C85.0582 10.7553 85.332 10.6839 85.57 10.5411C85.816 10.3983 86.0104 10.196 86.1532 9.93411C86.304 9.66433 86.3793 9.34694 86.3793 8.98194C86.3793 8.60901 86.304 8.29162 86.1532 8.02978C86.0104 7.76793 85.816 7.5656 85.57 7.42277C85.332 7.27995 85.0582 7.20854 84.7488 7.20854C84.4393 7.20854 84.1616 7.27995 83.9156 7.42277C83.6696 7.5656 83.4752 7.76793 83.3324 8.02978C83.1896 8.29162 83.1182 8.60901 83.1182 8.98194C83.1182 9.34694 83.1896 9.66433 83.3324 9.93411C83.4752 10.196 83.6696 10.3983 83.9156 10.5411C84.1616 10.6839 84.4393 10.7553 84.7488 10.7553ZM97.7033 5.68507C98.2111 5.68507 98.6594 5.78822 99.0482 5.99453C99.445 6.19289 99.7544 6.50235 99.9766 6.92289C100.207 7.33549 100.322 7.86712 100.322 8.51776V12.1836H98.465V8.80341C98.465 8.28765 98.3579 7.90679 98.1437 7.66081C97.9294 7.41484 97.6279 7.29185 97.2391 7.29185C96.9693 7.29185 96.7273 7.35533 96.5131 7.48228C96.2989 7.6013 96.1322 7.7838 96.0132 8.02978C95.8942 8.27575 95.8347 8.58917 95.8347 8.97004V12.1836H93.978V8.80341C93.978 8.28765 93.8708 7.90679 93.6566 7.66081C93.4503 7.41484 93.1528 7.29185 92.764 7.29185C92.4942 7.29185 92.2522 7.35533 92.0379 7.48228C91.8237 7.6013 91.6571 7.7838 91.538 8.02978C91.419 8.27575 91.3595 8.58917 91.3595 8.97004V12.1836H89.5028V5.78029H91.2762V7.52989L90.9429 7.0181C91.1651 6.58169 91.4785 6.2524 91.8832 6.03023C92.2958 5.80013 92.764 5.68507 93.2876 5.68507C93.8748 5.68507 94.3866 5.83583 94.823 6.13735C95.2674 6.43093 95.5609 6.88321 95.7038 7.49418L95.0491 7.31565C95.2634 6.81577 95.6046 6.41903 96.0727 6.12545C96.5488 5.83186 97.0923 5.68507 97.7033 5.68507ZM105.914 12.1836V10.9339L105.795 10.6601V8.42254C105.795 8.02581 105.672 7.71636 105.426 7.49418C105.188 7.27201 104.819 7.16093 104.319 7.16093C103.978 7.16093 103.64 7.21647 103.307 7.32756C102.982 7.43071 102.704 7.57353 102.474 7.75603L101.807 6.45871C102.157 6.21273 102.577 6.0223 103.069 5.88741C103.561 5.75252 104.061 5.68507 104.569 5.68507C105.545 5.68507 106.302 5.91518 106.842 6.37539C107.382 6.8356 107.651 7.55369 107.651 8.52966V12.1836H105.914ZM103.962 12.2788C103.462 12.2788 103.033 12.1955 102.676 12.0289C102.319 11.8543 102.046 11.6202 101.855 11.3266C101.665 11.0331 101.569 10.7038 101.569 10.3388C101.569 9.95791 101.661 9.62465 101.843 9.339C102.034 9.05335 102.331 8.83118 102.736 8.67249C103.14 8.50586 103.668 8.42254 104.319 8.42254H106.021V9.50563H104.521C104.085 9.50563 103.783 9.57704 103.617 9.71987C103.458 9.86269 103.379 10.0412 103.379 10.2555C103.379 10.4935 103.47 10.6839 103.652 10.8268C103.843 10.9616 104.101 11.0291 104.426 11.0291C104.735 11.0291 105.013 10.9577 105.259 10.8149C105.505 10.6641 105.684 10.4459 105.795 10.1602L106.08 11.0172C105.945 11.4298 105.699 11.7432 105.342 11.9575C104.985 12.1717 104.525 12.2788 103.962 12.2788ZM109.332 12.1836V5.78029H111.105V7.5894L110.855 7.06571C111.046 6.61343 111.351 6.27224 111.772 6.04213C112.192 5.80409 112.704 5.68507 113.307 5.68507V7.39897C113.228 7.39103 113.156 7.38707 113.093 7.38707C113.029 7.37913 112.962 7.37516 112.891 7.37516C112.383 7.37516 111.97 7.52196 111.653 7.81554C111.343 8.10119 111.189 8.5495 111.189 9.16047V12.1836H109.332ZM115.958 10.8744L116.006 8.61298L118.993 5.78029H121.207L118.338 8.69629L117.374 9.48183L115.958 10.8744ZM114.423 12.1836V3.35227H116.279V12.1836H114.423ZM119.195 12.1836L117.029 9.49373L118.196 8.05358L121.445 12.1836H119.195ZM56.4425 25.1836V17.8936H58.1296V25.1836H56.4425ZM63.1506 19.4974C63.595 19.4974 63.9907 19.5876 64.3379 19.7682C64.6919 19.9417 64.9697 20.2125 65.171 20.5805C65.3723 20.9415 65.473 21.4067 65.473 21.976V25.1836H63.8484V22.2259C63.8484 21.7746 63.7477 21.4414 63.5464 21.2262C63.352 21.0109 63.0742 20.9033 62.7132 20.9033C62.4563 20.9033 62.2237 20.9589 62.0155 21.0699C61.8141 21.1741 61.6544 21.3372 61.5364 21.5594C61.4253 21.7816 61.3698 22.0662 61.3698 22.4134V25.1836H59.7451V19.5807H61.2969V21.1324L61.0053 20.6638C61.2066 20.2889 61.4947 20.0007 61.8697 19.7994C62.2446 19.5981 62.6716 19.4974 63.1506 19.4974ZM68.8306 25.2669C68.3516 25.2669 67.8899 25.2114 67.4455 25.1003C67.0081 24.9823 66.661 24.8365 66.4041 24.6629L66.9457 23.4965C67.2025 23.6562 67.5046 23.7881 67.8517 23.8922C68.2058 23.9894 68.5529 24.038 68.8931 24.038C69.268 24.038 69.5319 23.9929 69.6846 23.9026C69.8443 23.8124 69.9241 23.6874 69.9241 23.5277C69.9241 23.3958 69.8617 23.2986 69.7367 23.2361C69.6187 23.1667 69.459 23.1146 69.2576 23.0799C69.0563 23.0452 68.8341 23.0105 68.5911 22.9758C68.3551 22.941 68.1155 22.8959 67.8725 22.8404C67.6295 22.7779 67.4074 22.6876 67.206 22.5696C67.0047 22.4516 66.8415 22.2919 66.7165 22.0905C66.5985 21.8892 66.5395 21.6288 66.5395 21.3095C66.5395 20.9554 66.6402 20.643 66.8415 20.3722C67.0498 20.1014 67.3483 19.8897 67.7371 19.7369C68.1259 19.5772 68.5911 19.4974 69.1327 19.4974C69.5145 19.4974 69.9033 19.539 70.2991 19.6224C70.6948 19.7057 71.0246 19.8272 71.2884 19.9869L70.7469 21.1428C70.4761 20.9832 70.2019 20.8755 69.9241 20.82C69.6534 20.7575 69.3895 20.7263 69.1327 20.7263C68.7716 20.7263 68.5078 20.7749 68.3412 20.8721C68.1745 20.9693 68.0912 21.0942 68.0912 21.247C68.0912 21.3858 68.1502 21.49 68.2683 21.5594C68.3932 21.6288 68.5564 21.6844 68.7577 21.726C68.9591 21.7677 69.1778 21.8059 69.4138 21.8406C69.6568 21.8684 69.8998 21.9135 70.1428 21.976C70.3858 22.0385 70.6045 22.1287 70.7989 22.2468C71.0003 22.3578 71.1634 22.5141 71.2884 22.7154C71.4134 22.9098 71.4759 23.1667 71.4759 23.4861C71.4759 23.8332 71.3717 24.1422 71.1634 24.4129C70.9552 24.6768 70.6531 24.8851 70.2574 25.0378C69.8686 25.1905 69.393 25.2669 68.8306 25.2669ZM72.4782 25.1836V19.5807H74.1029V25.1836H72.4782ZM73.2906 18.7996C72.992 18.7996 72.749 18.7128 72.5616 18.5393C72.3741 18.3657 72.2804 18.1505 72.2804 17.8936C72.2804 17.6367 72.3741 17.4215 72.5616 17.2479C72.749 17.0743 72.992 16.9875 73.2906 16.9875C73.5891 16.9875 73.8321 17.0709 74.0196 17.2375C74.207 17.3972 74.3008 17.6055 74.3008 17.8623C74.3008 18.1331 74.207 18.3588 74.0196 18.5393C73.8391 18.7128 73.5961 18.7996 73.2906 18.7996ZM78.2455 27.2873C77.7178 27.2873 77.2075 27.2213 76.7146 27.0894C76.2286 26.9644 75.8224 26.7735 75.4961 26.5166L76.1418 25.3502C76.3779 25.5446 76.6764 25.6974 77.0374 25.8085C77.4054 25.9265 77.7664 25.9855 78.1205 25.9855C78.6968 25.9855 79.1134 25.8571 79.3702 25.6002C79.6341 25.3433 79.766 24.9614 79.766 24.4546V23.611L79.8701 22.2051L79.8493 20.7888V19.5807H81.3906V24.2463C81.3906 25.2877 81.1198 26.0549 80.5783 26.5479C80.0368 27.0408 79.2592 27.2873 78.2455 27.2873ZM77.9955 24.9128C77.4748 24.9128 77.0027 24.8017 76.5792 24.5796C76.1626 24.3505 75.8259 24.0345 75.569 23.6319C75.3191 23.2222 75.1941 22.7466 75.1941 22.2051C75.1941 21.6566 75.3191 21.181 75.569 20.7783C75.8259 20.3687 76.1626 20.0528 76.5792 19.8306C77.0027 19.6085 77.4748 19.4974 77.9955 19.4974C78.4677 19.4974 78.8842 19.5946 79.2453 19.789C79.6063 19.9764 79.8875 20.2715 80.0888 20.6742C80.2902 21.0699 80.3908 21.5802 80.3908 22.2051C80.3908 22.823 80.2902 23.3333 80.0888 23.736C79.8875 24.1317 79.6063 24.4268 79.2453 24.6212C78.8842 24.8156 78.4677 24.9128 77.9955 24.9128ZM78.3184 23.5798C78.603 23.5798 78.8565 23.5242 79.0786 23.4132C79.3008 23.2951 79.4744 23.132 79.5994 22.9237C79.7243 22.7154 79.7868 22.4759 79.7868 22.2051C79.7868 21.9274 79.7243 21.6879 79.5994 21.4865C79.4744 21.2782 79.3008 21.1185 79.0786 21.0075C78.8565 20.8894 78.603 20.8304 78.3184 20.8304C78.0337 20.8304 77.7803 20.8894 77.5581 21.0075C77.336 21.1185 77.1589 21.2782 77.027 21.4865C76.902 21.6879 76.8396 21.9274 76.8396 22.2051C76.8396 22.4759 76.902 22.7154 77.027 22.9237C77.1589 23.132 77.336 23.2951 77.5581 23.4132C77.7803 23.5242 78.0337 23.5798 78.3184 23.5798ZM86.3082 19.4974C86.7525 19.4974 87.1483 19.5876 87.4954 19.7682C87.8495 19.9417 88.1272 20.2125 88.3286 20.5805C88.5299 20.9415 88.6306 21.4067 88.6306 21.976V25.1836H87.0059V22.2259C87.0059 21.7746 86.9053 21.4414 86.7039 21.2262C86.5095 21.0109 86.2318 20.9033 85.8708 20.9033C85.6139 20.9033 85.3813 20.9589 85.173 21.0699C84.9717 21.1741 84.812 21.3372 84.694 21.5594C84.5829 21.7816 84.5273 22.0662 84.5273 22.4134V25.1836H82.9027V17.4562H84.5273V21.1324L84.1628 20.6638C84.3642 20.2889 84.6523 20.0007 85.0272 19.7994C85.4021 19.5981 85.8291 19.4974 86.3082 19.4974ZM92.3944 25.2669C91.7348 25.2669 91.221 25.1003 90.8531 24.767C90.4851 24.4268 90.3011 23.9235 90.3011 23.2569V18.3414H91.9257V23.2361C91.9257 23.4722 91.9882 23.6562 92.1132 23.7881C92.2382 23.913 92.4083 23.9755 92.6235 23.9755C92.8804 23.9755 93.0991 23.9061 93.2796 23.7672L93.717 24.9128C93.5504 25.0309 93.349 25.1211 93.113 25.1836C92.8838 25.2391 92.6443 25.2669 92.3944 25.2669ZM89.4367 20.9554V19.7057H93.3212V20.9554H89.4367ZM97.6929 25.1836V17.8936H101.005C101.796 17.8936 102.494 18.0463 103.098 18.3518C103.702 18.6504 104.174 19.0704 104.514 19.6119C104.854 20.1535 105.025 20.7957 105.025 21.5386C105.025 22.2745 104.854 22.9167 104.514 23.4652C104.174 24.0068 103.702 24.4303 103.098 24.7358C102.494 25.0343 101.796 25.1836 101.005 25.1836H97.6929ZM99.38 23.7985H100.921C101.407 23.7985 101.827 23.7082 102.181 23.5277C102.542 23.3403 102.82 23.0764 103.015 22.7362C103.216 22.396 103.317 21.9968 103.317 21.5386C103.317 21.0734 103.216 20.6742 103.015 20.3409C102.82 20.0007 102.542 19.7404 102.181 19.5599C101.827 19.3724 101.407 19.2787 100.921 19.2787H99.38V23.7985ZM109.619 25.1836V24.0901L109.515 23.8506V21.8927C109.515 21.5455 109.407 21.2748 109.192 21.0804C108.984 20.886 108.661 20.7888 108.224 20.7888C107.925 20.7888 107.63 20.8374 107.338 20.9346C107.054 21.0248 106.811 21.1498 106.609 21.3095L106.026 20.1743C106.332 19.9591 106.7 19.7925 107.13 19.6744C107.56 19.5564 107.998 19.4974 108.442 19.4974C109.296 19.4974 109.959 19.6987 110.431 20.1014C110.903 20.5041 111.14 21.1324 111.14 21.9864V25.1836H109.619ZM107.911 25.2669C107.474 25.2669 107.099 25.194 106.786 25.0482C106.474 24.8955 106.234 24.6907 106.068 24.4338C105.901 24.1769 105.818 23.8887 105.818 23.5694C105.818 23.2361 105.898 22.9445 106.057 22.6946C106.224 22.4446 106.484 22.2502 106.838 22.1114C107.193 21.9656 107.654 21.8927 108.224 21.8927H109.713V22.8404H108.401C108.019 22.8404 107.755 22.9029 107.609 23.0278C107.47 23.1528 107.401 23.309 107.401 23.4965C107.401 23.7048 107.481 23.8714 107.64 23.9964C107.807 24.1144 108.033 24.1734 108.317 24.1734C108.588 24.1734 108.831 24.1109 109.046 23.9859C109.261 23.854 109.418 23.6631 109.515 23.4132L109.765 24.163C109.647 24.524 109.432 24.7983 109.119 24.9857C108.807 25.1732 108.404 25.2669 107.911 25.2669ZM114.901 25.2669C114.241 25.2669 113.728 25.1003 113.36 24.767C112.992 24.4268 112.808 23.9235 112.808 23.2569V18.3414H114.432V23.2361C114.432 23.4722 114.495 23.6562 114.62 23.7881C114.745 23.913 114.915 23.9755 115.13 23.9755C115.387 23.9755 115.606 23.9061 115.786 23.7672L116.224 24.9128C116.057 25.0309 115.856 25.1211 115.62 25.1836C115.391 25.2391 115.151 25.2669 114.901 25.2669ZM111.943 20.9554V19.7057H115.828V20.9554H111.943ZM120.572 25.1836V24.0901L120.468 23.8506V21.8927C120.468 21.5455 120.361 21.2748 120.145 21.0804C119.937 20.886 119.614 20.7888 119.177 20.7888C118.878 20.7888 118.583 20.8374 118.292 20.9346C118.007 21.0248 117.764 21.1498 117.563 21.3095L116.979 20.1743C117.285 19.9591 117.653 19.7925 118.083 19.6744C118.514 19.5564 118.951 19.4974 119.396 19.4974C120.25 19.4974 120.913 19.6987 121.385 20.1014C121.857 20.5041 122.093 21.1324 122.093 21.9864V25.1836H120.572ZM118.864 25.2669C118.427 25.2669 118.052 25.194 117.74 25.0482C117.427 24.8955 117.188 24.6907 117.021 24.4338C116.854 24.1769 116.771 23.8887 116.771 23.5694C116.771 23.2361 116.851 22.9445 117.011 22.6946C117.177 22.4446 117.438 22.2502 117.792 22.1114C118.146 21.9656 118.608 21.8927 119.177 21.8927H120.666V22.8404H119.354C118.972 22.8404 118.708 22.9029 118.562 23.0278C118.424 23.1528 118.354 23.309 118.354 23.4965C118.354 23.7048 118.434 23.8714 118.594 23.9964C118.76 24.1144 118.986 24.1734 119.271 24.1734C119.541 24.1734 119.784 24.1109 120 23.9859C120.215 23.854 120.371 23.6631 120.468 23.4132L120.718 24.163C120.6 24.524 120.385 24.7983 120.072 24.9857C119.76 25.1732 119.357 25.2669 118.864 25.2669Z" fill="#31456A"/>
<defs>
<filter id="filter0_d_2677_122" x="0" y="-0.000765964" width="35.88" height="27.7257" filterUnits="userSpaceOnUse" color-interpolation-filters="sRGB">
<feFlood flood-opacity="0" result="BackgroundImageFix"/>
<feColorMatrix in="SourceAlpha" type="matrix" values="0 0 0 0 0 0 0 0 0 0 0 0 0 0 0 0 0 0 127 0" result="hardAlpha"/>
<feOffset dx="0.829619" dy="0.18436"/>
<feGaussianBlur stdDeviation="0.18436"/>
<feComposite in2="hardAlpha" operator="out"/>
<feColorMatrix type="matrix" values="0 0 0 0 0 0 0 0 0 0 0 0 0 0 0 0 0 0 0.25 0"/>
<feBlend mode="normal" in2="BackgroundImageFix" result="effect1_dropShadow_2677_122"/>
<feBlend mode="normal" in="SourceGraphic" in2="effect1_dropShadow_2677_122" result="shape"/>
</filter>
</defs>
</svg>
